#!OML:ASF H:\Dans Jumps\Project 1\Capture day 1\Session 1\subject.ASF
:FULLY-SPECIFIED
:DEGREES
177
root 0.377885 14.5613 4.49173 1.47515 -3.40373 -2.25873
lowerback 14.2139 0.213667 1.09386
upperback 9.48684 0.375888 1.93949
thorax 2.03797 0.17018 1.36463
lowerneck -11.7311 -0.170266 -1.93663
upperneck -7.89081 0.0490273 2.05322
head -0.522191 0.0771835 0.95608
rclavicle 1.19271e-015 1.43125e-014
rhumerus 41.388 7.28353 -31.6434
rradius 67.7333
rwrist 21.6591
rhand -23.0939 -37.6029
rfingers 7.12502
rthumb 3.3524 -67.5563
lclavicle 1.19271e-015 1.43125e-014
lhumerus 44.3695 -6.79446 35.9704
lradius 65.9173
lwrist 5.92595
lhand -31.9209 -3.47462
lfingers 7.12502
lthumb -5.1724 26.4423
rfemur -43.2347 -11.3747 15.1633
rtibia 77.9471
rfoot -31.9801 -5.92531
rtoes -12.631
lfemur -40.4628 16.8722 -11.5701
ltibia 77.9376
lfoot -30.6191 14.1435
ltoes -12.6513
178
root 0.37772 14.5606 4.49279 1.45245 -3.39493 -2.23514
lowerback 14.2228 0.2127 1.06948
upperback 9.49576 0.371993 1.9364
thorax 2.04268 0.167223 1.37563
lowerneck -11.6932 -0.181414 -1.95522
upperneck -7.92802 0.0365505 2.06983
head -0.539557 0.0712274 0.964035
rclavicle 5.1684e-015 -1.03368e-014
rhumerus 41.3857 7.27081 -31.6559
rradius 67.7268
rwrist 21.6615
rhand -23.1381 -37.5905
rfingers 7.12502
rthumb 3.30973 -67.5446
lclavicle 5.1684e-015 -1.03368e-014
lhumerus 44.371 -6.7869 35.9704
lradius 65.8936
lwrist 5.91713
lhand -31.8931 -3.49918
lfingers 7.12502
lthumb -5.14553 26.4183
rfemur -43.2109 -11.3963 15.1317
rtibia 77.9547
rfoot -31.9546 -5.96269
rtoes -12.6262
lfemur -40.4368 16.861 -11.5914
ltibia 77.9392
lfoot -30.6168 14.1793
ltoes -12.7169
179
root 0.376968 14.5588 4.49198 1.45587 -3.38387 -2.23283
lowerback 14.2326 0.210329 1.05521
upperback 9.49214 0.367682 1.93683
thorax 2.0336 0.164421 1.38458
lowerneck -11.7212 -0.171816 -1.9489
upperneck -7.90305 0.0492513 2.08167
head -0.527518 0.0776563 0.967133
rclavicle 2.98177e-015 9.14409e-015
rhumerus 41.3688 7.26069 -31.6853
rradius 67.7413
rwrist 21.6591
rhand -23.0926 -37.5876
rfingers 7.12502
rthumb 3.35371 -67.5409
lclavicle 2.98177e-015 9.14409e-015
lhumerus 44.3873 -6.77055 35.9217
lradius 65.8849
lwrist 5.94342
lhand -31.8967 -3.47502
lfingers 7.12502
lthumb -5.14897 26.4424
rfemur -43.2284 -11.4027 15.1321
rtibia 77.9719
rfoot -31.9525 -5.97986
rtoes -12.729
lfemur -40.4577 16.856 -11.5933
ltibia 77.9501
lfoot -30.6028 14.1864
ltoes -12.7213
180
root 0.377123 14.5581 4.49341 1.43568 -3.37212 -2.25304
lowerback 14.2394 0.215342 1.09981
upperback 9.46823 0.380007 1.92997
thorax 2.00457 0.172904 1.35061
lowerneck -11.5726 -0.189546 -1.87975
upperneck -7.95712 0.0147458 2.03964
head -0.567469 0.057599 0.940854
rclavicle 8.15017e-015 5.96354e-015
rhumerus 41.2964 7.26295 -31.7234
rradius 67.7073
rwrist 21.6321
rhand -23.218 -37.4582
rfingers 7.12502
rthumb 3.23253 -67.4135
lclavicle 8.15017e-015 5.96354e-015
lhumerus 44.4063 -6.8423 35.9594
lradius 65.8754
lwrist 5.91384
lhand -32.1789 -3.69562
lfingers 7.12502
lthumb -5.42148 26.215
rfemur -43.1916 -11.405 15.1453
rtibia 77.9781
rfoot -32.0102 -5.99017
rtoes -12.7706
lfemur -40.4166 16.8454 -11.566
ltibia 77.9513
lfoot -30.6027 14.2589
ltoes -12.8529
181
root 0.376629 14.5559 4.49261 1.42946 -3.3637 -2.24059
lowerback 14.2601 0.213242 1.08304
upperback 9.46404 0.376026 1.92776
thorax 1.98907 0.170228 1.35814
lowerneck -11.4835 -0.23685 -2.06215
upperneck -7.94195 -0.0233629 2.23387
head -0.575298 0.0433904 1.032
rclavicle 5.96354e-016 -1.63003e-014
rhumerus 41.3066 7.25564 -31.7434
rradius 67.6958
rwrist 21.6302
rhand -23.1887 -37.4013
rfingers 7.12502
rthumb 3.26083 -67.3561
lclavicle 5.96354e-016 -1.63003e-014
lhumerus 44.3803 -6.83165 35.9731
lradius 65.8789
lwrist 5.91691
lhand -32.1838 -3.78905
lfingers 7.12502
lthumb -5.42618 26.1215
rfemur -43.1987 -11.4026 15.1323
rtibia 77.9979
rfoot -31.9862 -6.00264
rtoes -12.6588
lfemur -40.4261 16.8257 -11.5768
ltibia 77.967
lfoot -30.5908 14.2817
ltoes -12.9282
182
root 0.375673 14.555 4.49227 1.43436 -3.36364 -2.26359
lowerback 14.2451 0.207829 1.08837
upperback 9.49639 0.368288 1.93861
thorax 2.03177 0.166186 1.36772
lowerneck -11.638 -0.186163 -1.91966
upperneck -7.94702 0.0260394 2.08338
head -0.554039 0.0647746 0.961863
rclavicle -2.5842e-015 6.36111e-015
rhumerus 41.3494 7.22735 -31.723
rradius 67.7182
rwrist 21.6248
rhand -23.0525 -37.3405
rfingers 7.12502
rthumb 3.39239 -67.2933
lclavicle -2.5842e-015 6.36111e-015
lhumerus 44.3727 -6.76377 35.9516
lradius 65.87
lwrist 5.91258
lhand -31.8968 -3.60056
lfingers 7.12502
lthumb -5.14912 26.3169
rfemur -43.2099 -11.3854 15.1649
rtibia 78.0088
rfoot -31.9954 -6.01077
rtoes -12.6177
lfemur -40.4559 16.8335 -11.542
ltibia 77.9955
lfoot -30.6265 14.1864
ltoes -12.7107
183
root 0.375423 14.5537 4.49276 1.42787 -3.36842 -2.24073
lowerback 14.2476 0.213786 1.06598
upperback 9.49533 0.373751 1.93344
thorax 2.02906 0.168078 1.37422
lowerneck -11.6439 -0.195453 -1.95674
upperneck -7.9281 0.0188747 2.11922
head -0.546887 0.0623294 0.979279
rclavicle 1.98785e-016 -1.03368e-014
rhumerus 41.3433 7.21585 -31.7207
rradius 67.7214
rwrist 21.6337
rhand -23.0472 -37.358
rfingers 7.12502
rthumb 3.39747 -67.3107
lclavicle 1.98785e-016 -1.03368e-014
lhumerus 44.384 -6.75805 35.9657
lradius 65.8527
lwrist 5.92589
lhand -31.8834 -3.60321
lfingers 7.12502
lthumb -5.13616 26.3145
rfemur -43.2111 -11.3754 15.1353
rtibia 78.0282
rfoot -31.9909 -6.04144
rtoes -12.7271
lfemur -40.4516 16.8339 -11.5676
ltibia 78.0137
lfoot -30.6424 14.2028
ltoes -12.7287
184
root 0.375204 14.5525 4.49383 1.42001 -3.37026 -2.24157
lowerback 14.2349 0.215846 1.07887
upperback 9.4842 0.377898 1.92245
thorax 2.02395 0.171115 1.35492
lowerneck -11.6781 -0.192567 -2.15267
upperneck -7.77338 0.0512249 2.34956
head -0.49265 0.084998 1.08668
rclavicle -4.57205e-015 4.37326e-015
rhumerus 41.3124 7.22108 -31.7441
rradius 67.6993
rwrist 21.6027
rhand -23.1323 -37.2676
rfingers 7.12502
rthumb 3.3153 -67.2216
lclavicle -4.57205e-015 4.37326e-015
lhumerus 44.3948 -6.77032 36.001
lradius 65.8508
lwrist 5.90673
lhand -32.1255 -3.85799
lfingers 7.12502
lthumb -5.36988 26.054
rfemur -43.2029 -11.3657 15.1321
rtibia 78.044
rfoot -32.0304 -6.0495
rtoes -12.8193
lfemur -40.4438 16.8262 -11.5614
ltibia 78.0358
lfoot -30.6588 14.2041
ltoes -12.6928
185
root 0.374837 14.5501 4.49368 1.42166 -3.35197 -2.25422
lowerback 14.2544 0.209527 1.08919
upperback 9.48285 0.371262 1.9292
thorax 2.01235 0.168059 1.35692
lowerneck -11.9159 -0.147917 -2.20586
upperneck -7.57639 0.120879 2.4176
head -0.394113 0.123352 1.12035
rclavicle 7.95139e-015 2.0276e-014
rhumerus 41.3142 7.2258 -31.7184
rradius 67.7254
rwrist 21.6222
rhand -23.0586 -37.3648
rfingers 7.12502
rthumb 3.38652 -67.3177
lclavicle 7.95139e-015 2.0276e-014
lhumerus 44.3652 -6.75711 35.9921
lradius 65.8684
lwrist 5.91301
lhand -31.8518 -3.60323
lfingers 7.12502
lthumb -5.10563 26.3153
rfemur -43.2153 -11.3727 15.148
rtibia 78.0647
rfoot -32.0244 -6.06744
rtoes -12.8072
lfemur -40.4651 16.812 -11.5481
ltibia 78.0564
lfoot -30.6387 14.2353
ltoes -12.7784
186
root 0.374037 14.549 4.49414 1.41304 -3.33792 -2.24606
lowerback 14.2464 0.209735 1.06698
upperback 9.48414 0.368975 1.93631
thorax 2.01778 0.165737 1.37716
lowerneck -11.6936 -0.192967 -2.18989
upperneck -7.73991 0.0557932 2.38179
head -0.479615 0.0885225 1.10347
rclavicle -7.55382e-015 1.19271e-015
rhumerus 41.2962 7.20737 -31.7469
rradius 67.7297
rwrist 21.6346
rhand -23.1521 -37.3329
rfingers 7.12502
rthumb 3.2962 -67.2872
lclavicle -7.55382e-015 1.19271e-015
lhumerus 44.4106 -6.73746 36.0337
lradius 65.84
lwrist 5.92306
lhand -32.0827 -3.80564
lfingers 7.12502
lthumb -5.32857 26.1074
rfemur -43.2114 -11.3751 15.1411
rtibia 78.0828
rfoot -32.026 -6.10147
rtoes -12.9195
lfemur -40.4646 16.7972 -11.552
ltibia 78.0702
lfoot -30.6585 14.2179
ltoes -12.705
187
root 0.373864 14.5488 4.49515 1.39434 -3.33622 -2.24772
lowerback 14.2532 0.209243 1.06065
upperback 9.50043 0.367355 1.9452
thorax 2.03159 0.164329 1.39033
lowerneck -11.8474 -0.151081 -2.19253
upperneck -7.64695 0.113746 2.38243
head -0.427224 0.118757 1.10638
rclavicle -3.37934e-015 3.97569e-015
rhumerus 41.339 7.19674 -31.7315
rradius 67.7294
rwrist 21.6755
rhand -23.0074 -37.3197
rfingers 7.12502
rthumb 3.43599 -67.2718
lclavicle -3.37934e-015 3.97569e-015
lhumerus 44.3687 -6.71915 36.0249
lradius 65.8677
lwrist 5.91389
lhand -31.8669 -3.61347
lfingers 7.12502
lthumb -5.1202 26.3047
rfemur -43.1857 -11.3683 15.1366
rtibia 78.0916
rfoot -32.0403 -6.08861
rtoes -12.8399
lfemur -40.443 16.7962 -11.5454
ltibia 78.08
lfoot -30.6676 14.2494
ltoes -12.7835
